<?xml version="1.0" standalone="no"?><!DOCTYPE svg PUBLIC "-//W3C//DTD SVG 1.1//EN" "http://www.w3.org/Graphics/SVG/1.1/DTD/svg11.dtd"><svg t="1701696828851" class="icon" viewBox="0 0 1024 1024" version="1.1" xmlns="http://www.w3.org/2000/svg" p-id="23022" xmlns:xlink="http://www.w3.org/1999/xlink" width="200" height="200"><path d="M1002.666667 768a85.333333 85.333333 0 0 1-85.333334 85.333333H106.666667a85.333333 85.333333 0 0 1-85.333334-85.333333V256a85.333333 85.333333 0 0 1 85.333334-85.333333h810.666666a85.333333 85.333333 0 0 1 85.333334 85.333333v512z" fill="#FED049" p-id="23023"></path><path d="M128 618.666667h768v106.666666H128z" fill="#F6B445" p-id="23024"></path><path d="M725.333333 298.666667m21.333334 0l128 0q21.333333 0 21.333333 21.333333l0 42.666667q0 21.333333-21.333333 21.333333l-128 0q-21.333333 0-21.333334-21.333333l0-42.666667q0-21.333333 21.333334-21.333333Z" fill="#D0D7DF" p-id="23025"></path><path d="M192 341.333333m-64 0a64 64 0 1 0 128 0 64 64 0 1 0-128 0Z" fill="#D0D7DF" p-id="23026"></path><path d="M1002.666667 661.333333a21.333333 21.333333 0 0 0 21.333333-21.333333V256a106.794667 106.794667 0 0 0-106.666667-106.666667H106.666667a106.794667 106.794667 0 0 0-106.666667 106.666667v512a106.794667 106.794667 0 0 0 106.666667 106.666667h810.666666a106.794667 106.794667 0 0 0 106.666667-106.666667v-42.666667a21.333333 21.333333 0 0 0-21.333333-21.333333H128a21.333333 21.333333 0 0 0 0 42.666667h853.333333v21.333333a64 64 0 0 1-64 64H106.666667a64 64 0 0 1-64-64V256a64 64 0 0 1 64-64h810.666666a64 64 0 0 1 64 64v384a21.333333 21.333333 0 0 0 21.333334 21.333333z" fill="#474C54" p-id="23027"></path><path d="M277.333333 341.333333a85.333333 85.333333 0 1 0-85.333333 85.333334 85.333333 85.333333 0 0 0 85.333333-85.333334z m-85.333333 42.666667a42.666667 42.666667 0 1 1 42.666667-42.666667 42.666667 42.666667 0 0 1-42.666667 42.666667zM917.333333 320a42.666667 42.666667 0 0 0-42.666666-42.666667h-128a42.666667 42.666667 0 0 0-42.666667 42.666667v42.666667a42.666667 42.666667 0 0 0 42.666667 42.666666h128a42.666667 42.666667 0 0 0 42.666666-42.666666z m-42.666666 42.666667h-128v-42.666667h128zM128 597.333333a21.333333 21.333333 0 0 0 0 42.666667h64a21.333333 21.333333 0 0 0 0-42.666667zM682.666667 597.333333a21.333333 21.333333 0 0 0 0 42.666667h64a21.333333 21.333333 0 0 0 0-42.666667zM832 597.333333a21.333333 21.333333 0 0 0 0 42.666667h64a21.333333 21.333333 0 0 0 0-42.666667zM277.333333 640h320a21.333333 21.333333 0 0 0 0-42.666667H277.333333a21.333333 21.333333 0 0 0 0 42.666667z" fill="#474C54" p-id="23028"></path></svg>