<svg xmlns="http://www.w3.org/2000/svg" version="1.1" xmlns:xlink="http://www.w3.org/1999/xlink" xmlns:svgjs="http://svgjs.dev/svgjs" width="2000" height="378" viewBox="0 0 2000 378"><g transform="matrix(1,0,0,1,-1.2121212121212466,-0.5870079241515214)"><svg viewBox="0 0 396 75" data-background-color="#fafafa" preserveAspectRatio="xMidYMid meet" height="378" width="2000" xmlns="http://www.w3.org/2000/svg" xmlns:xlink="http://www.w3.org/1999/xlink"><g id="tight-bounds" transform="matrix(1,0,0,1,0.2400000000000091,0.1164698262205377)"><svg viewBox="0 0 395.52 74.76706034755892" height="74.76706034755892" width="395.52"><g><svg viewBox="0 0 560.1174526424711 105.88171365149833" height="74.76706034755892" width="395.52"><g><rect width="9.501017121413541" height="105.88171365149833" x="130.22466295191217" y="0" fill="#130912" opacity="1" stroke-width="0" stroke="transparent" fill-opacity="1" class="rect-qz-0" data-fill-palette-color="primary" rx="1%" id="qz-0" data-palette-color="#130912"></rect></g><g transform="matrix(1,0,0,1,164.59745264247113,0.2633873473917845)"><svg viewBox="0 0 395.52 105.35493895671476" height="105.35493895671476" width="395.52"><g id="textblocktransform"><svg viewBox="0 0 395.52 105.35493895671476" height="105.35493895671476" width="395.52" id="textblock"><g><svg viewBox="0 0 395.52 105.35493895671476" height="105.35493895671476" width="395.52"><g transform="matrix(1,0,0,1,0,0)"><svg width="395.52" viewBox="1.7 -35.5 135.14000000000001 36" height="105.35493895671476" data-palette-color="#130912"><path d="M9.8 0.5Q5.85 0.5 3.78-1.75 1.7-4 1.7-8.1L1.7-8.1 1.7-26.9Q1.7-31 3.78-33.25 5.85-35.5 9.8-35.5L9.8-35.5Q13.75-35.5 15.83-33.25 17.9-31 17.9-26.9L17.9-26.9 17.9-23.2 12.7-23.2 12.7-27.25Q12.7-30.5 9.95-30.5L9.95-30.5Q7.2-30.5 7.2-27.25L7.2-27.25 7.2-7.7Q7.2-4.5 9.95-4.5L9.95-4.5Q12.7-4.5 12.7-7.7L12.7-7.7 12.7-13.05 17.9-13.05 17.9-8.1Q17.9-4 15.83-1.75 13.75 0.5 9.8 0.5L9.8 0.5ZM29.25 0.5Q25.2 0.5 23.05-1.8 20.9-4.1 20.9-8.3L20.9-8.3 20.9-26.7Q20.9-30.9 23.05-33.2 25.2-35.5 29.25-35.5L29.25-35.5Q33.3-35.5 35.45-33.2 37.6-30.9 37.6-26.7L37.6-26.7 37.6-8.3Q37.6-4.1 35.45-1.8 33.3 0.5 29.25 0.5L29.25 0.5ZM29.25-4.5Q32.1-4.5 32.1-7.95L32.1-7.95 32.1-27.05Q32.1-30.5 29.25-30.5L29.25-30.5Q26.4-30.5 26.4-27.05L26.4-27.05 26.4-7.95Q26.4-4.5 29.25-4.5L29.25-4.5ZM41.3 0L41.3-35 48.2-35 53.55-14.05 53.65-14.05 53.65-35 58.55-35 58.55 0 52.9 0 46.3-25.55 46.2-25.55 46.2 0 41.3 0ZM62.64 0L62.64-35 69.54-35 74.89-14.05 74.99-14.05 74.99-35 79.89-35 79.89 0 74.24 0 67.64-25.55 67.54-25.55 67.54 0 62.64 0ZM83.99 0L83.99-35 98.99-35 98.99-30 89.49-30 89.49-20.75 97.04-20.75 97.04-15.75 89.49-15.75 89.49-5 98.99-5 98.99 0 83.99 0ZM109.89 0.5Q105.94 0.5 103.86-1.75 101.79-4 101.79-8.1L101.79-8.1 101.79-26.9Q101.79-31 103.86-33.25 105.94-35.5 109.89-35.5L109.89-35.5Q113.84-35.5 115.91-33.25 117.99-31 117.99-26.9L117.99-26.9 117.99-23.2 112.79-23.2 112.79-27.25Q112.79-30.5 110.04-30.5L110.04-30.5Q107.29-30.5 107.29-27.25L107.29-27.25 107.29-7.7Q107.29-4.5 110.04-4.5L110.04-4.5Q112.79-4.5 112.79-7.7L112.79-7.7 112.79-13.05 117.99-13.05 117.99-8.1Q117.99-4 115.91-1.75 113.84 0.5 109.89 0.5L109.89 0.5ZM125.59 0L125.59-30 119.84-30 119.84-35 136.84-35 136.84-30 131.09-30 131.09 0 125.59 0Z" opacity="1" transform="matrix(1,0,0,1,0,0)" fill="#130912" class="wordmark-text-0" data-fill-palette-color="primary" id="text-0"></path></svg></g></svg></g></svg></g></svg></g><g transform="matrix(1,0,0,1,0,0.2633873473917916)"><svg viewBox="0 0 105.35289038276677 105.35493895671475" height="105.35493895671475" width="105.35289038276677"><g><svg xmlns="http://www.w3.org/2000/svg" xmlns:xlink="http://www.w3.org/1999/xlink" version="1.1" x="0" y="0" viewBox="5.00075 5.0005 89.998 89.99975" enable-background="new 0 0 100 100" xml:space="preserve" height="105.35493895671475" width="105.35289038276677" class="icon-icon-0" data-fill-palette-color="accent" id="icon-0"><g fill="#e77917" data-fill-palette-color="accent"><path fill="#e77917" d="M53.707 52.526l-6.74 6.744-6.236-6.236 6.74-6.741c1.399-1.397 1.399-3.66 0-5.055-1.395-1.397-3.658-1.397-5.054 0l-6.742 6.741-4.643-4.644c-0.097 0.095-8.829 8.826-8.927 8.925-6.594 6.597-7.038 17.001-1.347 24.116L5.591 91.541c-0.787 0.79-0.787 2.074 0 2.866 0.792 0.791 2.079 0.791 2.87 0l15.164-15.165c7.118 5.688 17.521 5.242 24.117-1.349 0.098-0.099 8.823-8.834 8.917-8.932l-4.639-4.636 6.744-6.744c1.394-1.393 1.394-3.656 0-5.056C57.365 51.13 55.103 51.13 53.707 52.526z" data-fill-palette-color="accent"></path><path fill="#e77917" d="M94.404 5.593c-0.79-0.79-2.072-0.79-2.861 0L76.375 20.76c-7.113-5.691-17.52-5.246-24.112 1.348-0.098 0.098-8.825 8.832-8.921 8.931l4.638 4.637 5.728-5.729c1.396-1.394 3.658-1.394 5.058 0 1.394 1.396 1.394 3.662 0 5.055l-5.731 5.73 6.235 6.233 5.73-5.729c1.396-1.394 3.654-1.394 5.054 0 1.396 1.398 1.396 3.661 0 5.059l-5.729 5.729 4.645 4.642c0.098-0.095 8.825-8.826 8.923-8.925 6.598-6.593 7.042-17.001 1.348-24.116L94.404 8.46C95.197 7.668 95.197 6.384 94.404 5.593z" data-fill-palette-color="accent"></path></g></svg></g></svg></g></svg></g><defs></defs></svg><rect width="395.52" height="74.76706034755892" fill="none" stroke="none" visibility="hidden"></rect></g></svg></g></svg>