<?xml version="1.0" standalone="no"?><!DOCTYPE svg PUBLIC "-//W3C//DTD SVG 1.1//EN" "http://www.w3.org/Graphics/SVG/1.1/DTD/svg11.dtd"><svg t="1701697008917" class="icon" viewBox="0 0 1024 1024" version="1.1" xmlns="http://www.w3.org/2000/svg" p-id="25313" xmlns:xlink="http://www.w3.org/1999/xlink" width="200" height="200"><path d="M514.1504 542.6176m-390.4512 0a390.4512 390.4512 0 1 0 780.9024 0 390.4512 390.4512 0 1 0-780.9024 0Z" fill="#FFBE4A" p-id="25314"></path><path d="M514.1504 152.1664c-17.0496 0-33.792 1.2288-50.2272 3.328 191.8976 24.6784 340.1728 188.5184 340.1728 387.1232s-148.3264 362.4448-340.1728 387.1232c16.4864 2.0992 33.2288 3.328 50.2272 3.328 215.6032 0 390.4512-174.7968 390.4512-390.4512-0.0512-215.6544-174.848-390.4512-390.4512-390.4512z" fill="#F2842B" p-id="25315"></path><path d="M514.1504 948.3776c-223.744 0-405.76-182.016-405.76-405.8112 0-223.744 182.016-405.76 405.76-405.76s405.8112 182.016 405.8112 405.76c-0.0512 223.7952-182.0672 405.8112-405.8112 405.8112z m0-780.8512c-206.7968 0-375.04 168.2432-375.04 375.04s168.2432 375.0912 375.04 375.0912 375.0912-168.2432 375.0912-375.0912c-0.0512-206.7968-168.2944-375.04-375.0912-375.04z" fill="#333333" p-id="25316"></path><path d="M199.68 557.9776c-8.4992 0-15.36-6.8608-15.36-15.36 0-77.3632 27.3408-152.576 76.9536-211.7632a15.35488 15.35488 0 0 1 21.6576-1.8944 15.35488 15.35488 0 0 1 1.8944 21.6576C239.8208 404.224 215.04 472.4224 215.04 542.6176c0 8.448-6.8608 15.36-15.36 15.36z" fill="#FFFFFF" p-id="25317"></path><path d="M451.6864 321.7408h145.2032c32.768-22.9376 54.2208-60.8768 54.2208-103.8848 0-70.0416-56.7808-126.8224-126.8224-126.8224S397.4656 147.7632 397.4656 217.8048c0 43.008 21.4528 80.9984 54.2208 103.936z" fill="#F5D126" p-id="25318"></path><path d="M524.288 90.9824c-10.9056 0-21.504 1.3824-31.5904 3.9936 54.7328 14.0288 95.232 63.744 95.232 122.88 0 43.008-21.4528 80.9984-54.2208 103.8848h63.232c32.768-22.9376 54.2208-60.8768 54.2208-103.8848-0.0512-70.0928-56.832-126.8736-126.8736-126.8736z" fill="#F2B200" p-id="25319"></path><path d="M637.1328 606.3104c8.4992 0 15.36-6.8608 15.36-15.36s-6.8608-15.36-15.36-15.36h-87.7056l98.8672-143.2576a15.34976 15.34976 0 0 0-25.2416-17.4592l-107.5712 155.904-110.336-156.0064a15.39584 15.39584 0 0 0-21.4016-3.6864 15.40096 15.40096 0 0 0-3.6864 21.4016l101.1712 143.104h-90.112c-8.4992 0-15.36 6.8608-15.36 15.36s6.8608 15.36 15.36 15.36h107.6736v50.3296H391.1168c-8.4992 0-15.36 6.8608-15.36 15.36s6.8608 15.36 15.36 15.36h107.6736v81.5104c0 8.4992 6.8608 15.36 15.36 15.36s15.36-6.8608 15.36-15.36v-81.5104h107.6736c8.4992 0 15.36-6.8608 15.36-15.36s-6.8608-15.36-15.36-15.36h-107.6736v-50.3296h107.6224zM698.88 306.3808h-63.488a141.9264 141.9264 0 0 0 31.0784-88.5248c0-78.3872-63.7952-142.1824-142.1824-142.1824S382.1056 139.4176 382.1056 217.8048c0 32.512 11.264 63.6416 31.1296 88.5248H338.2272c-8.4992 0-15.36 6.8608-15.36 15.36s6.8608 15.36 15.36 15.36h360.6528a15.33952 15.33952 0 1 0 0-30.6688z m-242.176 0c-27.5456-21.0944-43.8784-53.8112-43.8784-88.5248 0-61.44 50.0224-111.4624 111.4624-111.4624s111.4624 50.0224 111.4624 111.4624c0 34.7136-16.3328 67.4816-43.8784 88.5248H456.704z" fill="#333333" p-id="25320"></path><path d="M457.2672 236.1344c-0.5632 0-1.0752-0.0512-1.6384-0.1024a15.39072 15.39072 0 0 1-13.6704-16.896c6.4-59.8528 53.8112-81.3568 55.808-82.2784 7.7824-3.4304 16.8448 0.1024 20.2752 7.8848 3.4304 7.7312-0.1024 16.7424-7.7824 20.224-1.5872 0.7168-33.28 15.872-37.7344 57.4464a15.39584 15.39584 0 0 1-15.2576 13.7216z" fill="#FFFFFF" p-id="25321"></path></svg>