<svg xmlns="http://www.w3.org/2000/svg" version="1.1" xmlns:xlink="http://www.w3.org/1999/xlink" xmlns:svgjs="http://svgjs.dev/svgjs" width="128" height="128" viewBox="0 0 128 128"><g transform="matrix(0.8046875,0,0,0.8046875,12.759746169704258,12.76075263157896)"><svg viewBox="0 0 95 95" data-background-color="#fafafa" preserveAspectRatio="xMidYMid meet" height="128" width="128" xmlns="http://www.w3.org/2000/svg" xmlns:xlink="http://www.w3.org/1999/xlink"><g id="tight-bounds" transform="matrix(1,0,0,1,-0.23957170992140675,-0.24050000000001148)"><svg viewBox="0 0 95.47914341984283 95.481" height="95.481" width="95.47914341984283"><g><svg viewBox="0 0 95.47914341984283 95.481" height="95.481" width="95.47914341984283"><g><svg viewBox="0 0 95.47914341984283 95.481" height="95.481" width="95.47914341984283"><g id="textblocktransform"><svg viewBox="0 0 95.47914341984283 95.481" height="95.481" width="95.47914341984283" id="textblock"><g><svg viewBox="0 0 95.47914341984283 95.481" height="95.481" width="95.47914341984283"><g><svg viewBox="0 0 95.47914341984283 95.481" height="95.481" width="95.47914341984283"><g><svg xmlns="http://www.w3.org/2000/svg" xmlns:xlink="http://www.w3.org/1999/xlink" version="1.1" x="0" y="0" viewBox="5.00075 5.0005 89.998 89.99975" enable-background="new 0 0 100 100" xml:space="preserve" height="95.481" width="95.47914341984283" class="icon-icon-0" data-fill-palette-color="accent" id="icon-0"><g fill="#e77917" data-fill-palette-color="accent"><path fill="#e77917" d="M53.707 52.526l-6.74 6.744-6.236-6.236 6.74-6.741c1.399-1.397 1.399-3.66 0-5.055-1.395-1.397-3.658-1.397-5.054 0l-6.742 6.741-4.643-4.644c-0.097 0.095-8.829 8.826-8.927 8.925-6.594 6.597-7.038 17.001-1.347 24.116L5.591 91.541c-0.787 0.79-0.787 2.074 0 2.866 0.792 0.791 2.079 0.791 2.87 0l15.164-15.165c7.118 5.688 17.521 5.242 24.117-1.349 0.098-0.099 8.823-8.834 8.917-8.932l-4.639-4.636 6.744-6.744c1.394-1.393 1.394-3.656 0-5.056C57.365 51.13 55.103 51.13 53.707 52.526z" data-fill-palette-color="accent"></path><path fill="#e77917" d="M94.404 5.593c-0.79-0.79-2.072-0.79-2.861 0L76.375 20.76c-7.113-5.691-17.52-5.246-24.112 1.348-0.098 0.098-8.825 8.832-8.921 8.931l4.638 4.637 5.728-5.729c1.396-1.394 3.658-1.394 5.058 0 1.394 1.396 1.394 3.662 0 5.055l-5.731 5.73 6.235 6.233 5.73-5.729c1.396-1.394 3.654-1.394 5.054 0 1.396 1.398 1.396 3.661 0 5.059l-5.729 5.729 4.645 4.642c0.098-0.095 8.825-8.826 8.923-8.925 6.598-6.593 7.042-17.001 1.348-24.116L94.404 8.46C95.197 7.668 95.197 6.384 94.404 5.593z" data-fill-palette-color="accent"></path></g></svg></g></svg></g></svg></g></svg></g></svg></g></svg></g><defs></defs></svg><rect width="95.47914341984283" height="95.481" fill="none" stroke="none" visibility="hidden"></rect></g></svg></g></svg>